# xmcd CD database file generated by MAGIX-FreeDB-MP3_Maker_14 v2.0beta1
# 
# Track frame offsets:
#      150
#      13125
#      24591
#      35198
#      45394
#      57347
#      70556
#      85726
#      95966
#      107007
#      116889
#      127349
#      136383
#      147773
# 
# Disc length: 2139 seconds
# 
# Revision: 4 
# Processed by: cddbd v1.5.2PL0 Copyright (c) Steve Scherf et al.
# Submitted via: MAGIX-FreeDB-MP3_Maker_14 v2.0beta1
# 
DISCID=cd08590e
DTITLE=Various Artist - @Country Classics CD2
DYEAR=2000
DGENRE=Country
TTITLE0=Freddy Fender - Silver Wings
TTITLE1=Skeeter Davin - Crying Time
TTITLE2=Johnny Tillotson - Send Me The Pillow You Dream On
TTITLE3=Dolly Parton - Release Me
TTITLE4=Johnny Cash - You're The Nearest Thing To Heaven
TTITLE5=Charlie Rich - Behind Closed Doors
TTITLE6=Kenny Rogers - For The Good Times
TTITLE7=Frankie Laine - I Believe
TTITLE8=Patsy Cline - I Can't Forget
TTITLE9=Sandy Posey - What A Woman Won't Do
TTITLE10=Faron Young - If You Ain't Lovin'
TTITLE11=Roy Drusky - Peel Me A Nanner
TTITLE12=Willie Nelson - Touch Me
TTITLE13=Charlie Rich - I Take It On Home
EXTD=
EXTT0=
EXTT1=
EXTT2=
EXTT3=
EXTT4=
EXTT5=
EXTT6=
EXTT7=
EXTT8=
EXTT9=
EXTT10=
EXTT11=
EXTT12=
EXTT13=
PLAYORDER=
